<mxfile host="drawio-plugin" modified="2022-02-10T09:11:00.067Z" agent="5.0 (Windows NT 6.2; Win64; x64) AppleWebKit/537.36 (KHTML, like Gecko) Chrome/89.0.4389.114 Safari/537.36" etag="UusvptKSBhsGAZcKg1xD" version="15.5.4" type="embed"><diagram id="AAYpdS54LzfrMDJUuCrO" name="Page-1"><mxGraphModel dx="724" dy="1701" grid="1" gridSize="10" guides="1" tooltips="1" connect="1" arrows="1" fold="1" page="1" pageScale="1" pageWidth="827" pageHeight="1169" math="0" shadow="0"><root><mxCell id="0"/><mxCell id="1" parent="0"/><mxCell id="HhJSG8R3k3dLsdH0OaCU-1" value="User" style="swimlane;fontStyle=1;align=center;verticalAlign=top;childLayout=stackLayout;horizontal=1;startSize=26;horizontalStack=0;resizeParent=1;resizeParentMax=0;resizeLast=0;collapsible=1;marginBottom=0;" parent="1" vertex="1"><mxGeometry x="320" y="20" width="160" height="134" as="geometry"/></mxCell><mxCell id="HhJSG8R3k3dLsdH0OaCU-2" value="-id : long&#10;-nombre : String&#10;-correo : String&#10;-contraseña : String&#10;-foto : String&#10;" style="text;strokeColor=none;fillColor=none;align=left;verticalAlign=top;spacingLeft=4;spacingRight=4;overflow=hidden;rotatable=0;points=[[0,0.5],[1,0.5]];portConstraint=eastwest;" parent="HhJSG8R3k3dLsdH0OaCU-1" vertex="1"><mxGeometry y="26" width="160" height="74" as="geometry"/></mxCell><mxCell id="HhJSG8R3k3dLsdH0OaCU-3" value="" style="line;strokeWidth=1;fillColor=none;align=left;verticalAlign=middle;spacingTop=-1;spacingLeft=3;spacingRight=3;rotatable=0;labelPosition=right;points=[];portConstraint=eastwest;" parent="HhJSG8R3k3dLsdH0OaCU-1" vertex="1"><mxGeometry y="100" width="160" height="8" as="geometry"/></mxCell><mxCell id="HhJSG8R3k3dLsdH0OaCU-4" value="+getters&amp;setters" style="text;strokeColor=none;fillColor=none;align=left;verticalAlign=top;spacingLeft=4;spacingRight=4;overflow=hidden;rotatable=0;points=[[0,0.5],[1,0.5]];portConstraint=eastwest;" parent="HhJSG8R3k3dLsdH0OaCU-1" vertex="1"><mxGeometry y="108" width="160" height="26" as="geometry"/></mxCell><mxCell id="HhJSG8R3k3dLsdH0OaCU-5" value="Admin" style="swimlane;fontStyle=1;align=center;verticalAlign=top;childLayout=stackLayout;horizontal=1;startSize=26;horizontalStack=0;resizeParent=1;resizeParentMax=0;resizeLast=0;collapsible=1;marginBottom=0;" parent="1" vertex="1"><mxGeometry x="90" y="190" width="160" height="60" as="geometry"/></mxCell><mxCell id="HhJSG8R3k3dLsdH0OaCU-7" value="" style="line;strokeWidth=1;fillColor=none;align=left;verticalAlign=middle;spacingTop=-1;spacingLeft=3;spacingRight=3;rotatable=0;labelPosition=right;points=[];portConstraint=eastwest;" parent="HhJSG8R3k3dLsdH0OaCU-5" vertex="1"><mxGeometry y="26" width="160" height="8" as="geometry"/></mxCell><mxCell id="HhJSG8R3k3dLsdH0OaCU-8" value="+getters&amp;setters" style="text;strokeColor=none;fillColor=none;align=left;verticalAlign=top;spacingLeft=4;spacingRight=4;overflow=hidden;rotatable=0;points=[[0,0.5],[1,0.5]];portConstraint=eastwest;" parent="HhJSG8R3k3dLsdH0OaCU-5" vertex="1"><mxGeometry y="34" width="160" height="26" as="geometry"/></mxCell><mxCell id="HhJSG8R3k3dLsdH0OaCU-9" value="Login" style="swimlane;fontStyle=1;align=center;verticalAlign=top;childLayout=stackLayout;horizontal=1;startSize=26;horizontalStack=0;resizeParent=1;resizeParentMax=0;resizeLast=0;collapsible=1;marginBottom=0;" parent="1" vertex="1"><mxGeometry x="320" y="-170" width="160" height="114" as="geometry"/></mxCell><mxCell id="HhJSG8R3k3dLsdH0OaCU-10" value="-id : long&#10;-fecha : LocalDateTime&#10;-token : String&#10;" style="text;strokeColor=none;fillColor=none;align=left;verticalAlign=top;spacingLeft=4;spacingRight=4;overflow=hidden;rotatable=0;points=[[0,0.5],[1,0.5]];portConstraint=eastwest;" parent="HhJSG8R3k3dLsdH0OaCU-9" vertex="1"><mxGeometry y="26" width="160" height="54" as="geometry"/></mxCell><mxCell id="HhJSG8R3k3dLsdH0OaCU-11" value="" style="line;strokeWidth=1;fillColor=none;align=left;verticalAlign=middle;spacingTop=-1;spacingLeft=3;spacingRight=3;rotatable=0;labelPosition=right;points=[];portConstraint=eastwest;" parent="HhJSG8R3k3dLsdH0OaCU-9" vertex="1"><mxGeometry y="80" width="160" height="8" as="geometry"/></mxCell><mxCell id="HhJSG8R3k3dLsdH0OaCU-12" value="+getters&amp;setters" style="text;strokeColor=none;fillColor=none;align=left;verticalAlign=top;spacingLeft=4;spacingRight=4;overflow=hidden;rotatable=0;points=[[0,0.5],[1,0.5]];portConstraint=eastwest;" parent="HhJSG8R3k3dLsdH0OaCU-9" vertex="1"><mxGeometry y="88" width="160" height="26" as="geometry"/></mxCell><mxCell id="HhJSG8R3k3dLsdH0OaCU-13" value="Cliente" style="swimlane;fontStyle=1;align=center;verticalAlign=top;childLayout=stackLayout;horizontal=1;startSize=26;horizontalStack=0;resizeParent=1;resizeParentMax=0;resizeLast=0;collapsible=1;marginBottom=0;" parent="1" vertex="1"><mxGeometry x="550" y="190" width="160" height="60" as="geometry"/></mxCell><mxCell id="HhJSG8R3k3dLsdH0OaCU-15" value="" style="line;strokeWidth=1;fillColor=none;align=left;verticalAlign=middle;spacingTop=-1;spacingLeft=3;spacingRight=3;rotatable=0;labelPosition=right;points=[];portConstraint=eastwest;" parent="HhJSG8R3k3dLsdH0OaCU-13" vertex="1"><mxGeometry y="26" width="160" height="8" as="geometry"/></mxCell><mxCell id="HhJSG8R3k3dLsdH0OaCU-25" value="+getters&amp;setters" style="text;strokeColor=none;fillColor=none;align=left;verticalAlign=top;spacingLeft=4;spacingRight=4;overflow=hidden;rotatable=0;points=[[0,0.5],[1,0.5]];portConstraint=eastwest;" parent="HhJSG8R3k3dLsdH0OaCU-13" vertex="1"><mxGeometry y="34" width="160" height="26" as="geometry"/></mxCell><mxCell id="HhJSG8R3k3dLsdH0OaCU-17" value="Infraestructura" style="swimlane;fontStyle=1;align=center;verticalAlign=top;childLayout=stackLayout;horizontal=1;startSize=26;horizontalStack=0;resizeParent=1;resizeParentMax=0;resizeLast=0;collapsible=1;marginBottom=0;" parent="1" vertex="1"><mxGeometry x="260" y="320" width="180" height="144" as="geometry"/></mxCell><mxCell id="HhJSG8R3k3dLsdH0OaCU-18" value="-id : long&#10;-tipo : String&#10;-foto : String&#10;-horaApertura : LocalDateTime&#10;-horaCierre : LocalDateTime&#10;&#10;" style="text;strokeColor=none;fillColor=none;align=left;verticalAlign=top;spacingLeft=4;spacingRight=4;overflow=hidden;rotatable=0;points=[[0,0.5],[1,0.5]];portConstraint=eastwest;" parent="HhJSG8R3k3dLsdH0OaCU-17" vertex="1"><mxGeometry y="26" width="180" height="84" as="geometry"/></mxCell><mxCell id="HhJSG8R3k3dLsdH0OaCU-19" value="" style="line;strokeWidth=1;fillColor=none;align=left;verticalAlign=middle;spacingTop=-1;spacingLeft=3;spacingRight=3;rotatable=0;labelPosition=right;points=[];portConstraint=eastwest;" parent="HhJSG8R3k3dLsdH0OaCU-17" vertex="1"><mxGeometry y="110" width="180" height="8" as="geometry"/></mxCell><mxCell id="HhJSG8R3k3dLsdH0OaCU-20" value="+getters&amp;setters" style="text;strokeColor=none;fillColor=none;align=left;verticalAlign=top;spacingLeft=4;spacingRight=4;overflow=hidden;rotatable=0;points=[[0,0.5],[1,0.5]];portConstraint=eastwest;" parent="HhJSG8R3k3dLsdH0OaCU-17" vertex="1"><mxGeometry y="118" width="180" height="26" as="geometry"/></mxCell><mxCell id="HhJSG8R3k3dLsdH0OaCU-21" value="Alquiler" style="swimlane;fontStyle=1;align=center;verticalAlign=top;childLayout=stackLayout;horizontal=1;startSize=26;horizontalStack=0;resizeParent=1;resizeParentMax=0;resizeLast=0;collapsible=1;marginBottom=0;" parent="1" vertex="1"><mxGeometry x="550" y="330" width="160" height="124" as="geometry"/></mxCell><mxCell id="HhJSG8R3k3dLsdH0OaCU-22" value="-id : long&#10;-fechaInicio : LocalDateTime&#10;-fechaFin : LocalDateTime&#10;-coste : Double&#10;&#10;" style="text;strokeColor=none;fillColor=none;align=left;verticalAlign=top;spacingLeft=4;spacingRight=4;overflow=hidden;rotatable=0;points=[[0,0.5],[1,0.5]];portConstraint=eastwest;" parent="HhJSG8R3k3dLsdH0OaCU-21" vertex="1"><mxGeometry y="26" width="160" height="64" as="geometry"/></mxCell><mxCell id="HhJSG8R3k3dLsdH0OaCU-23" value="" style="line;strokeWidth=1;fillColor=none;align=left;verticalAlign=middle;spacingTop=-1;spacingLeft=3;spacingRight=3;rotatable=0;labelPosition=right;points=[];portConstraint=eastwest;" parent="HhJSG8R3k3dLsdH0OaCU-21" vertex="1"><mxGeometry y="90" width="160" height="8" as="geometry"/></mxCell><mxCell id="HhJSG8R3k3dLsdH0OaCU-24" value="+getters&amp;setters" style="text;strokeColor=none;fillColor=none;align=left;verticalAlign=top;spacingLeft=4;spacingRight=4;overflow=hidden;rotatable=0;points=[[0,0.5],[1,0.5]];portConstraint=eastwest;" parent="HhJSG8R3k3dLsdH0OaCU-21" vertex="1"><mxGeometry y="98" width="160" height="26" as="geometry"/></mxCell><mxCell id="HhJSG8R3k3dLsdH0OaCU-27" value="Extends" style="endArrow=block;endSize=16;endFill=0;html=1;rounded=0;exitX=0.5;exitY=0;exitDx=0;exitDy=0;entryX=1;entryY=0.5;entryDx=0;entryDy=0;" parent="1" source="HhJSG8R3k3dLsdH0OaCU-13" target="HhJSG8R3k3dLsdH0OaCU-2" edge="1"><mxGeometry width="160" relative="1" as="geometry"><mxPoint x="540" y="86.58000000000001" as="sourcePoint"/><mxPoint x="590" y="50" as="targetPoint"/></mxGeometry></mxCell><mxCell id="HhJSG8R3k3dLsdH0OaCU-28" value="Extends" style="endArrow=block;endSize=16;endFill=0;html=1;rounded=0;exitX=0.5;exitY=0;exitDx=0;exitDy=0;entryX=0;entryY=0.5;entryDx=0;entryDy=0;" parent="1" source="HhJSG8R3k3dLsdH0OaCU-5" target="HhJSG8R3k3dLsdH0OaCU-2" edge="1"><mxGeometry width="160" relative="1" as="geometry"><mxPoint x="110" y="120" as="sourcePoint"/><mxPoint x="170" y="50" as="targetPoint"/></mxGeometry></mxCell><mxCell id="HhJSG8R3k3dLsdH0OaCU-29" value="" style="endArrow=none;html=1;rounded=0;exitX=0.5;exitY=0;exitDx=0;exitDy=0;" parent="1" source="HhJSG8R3k3dLsdH0OaCU-1" target="HhJSG8R3k3dLsdH0OaCU-12" edge="1"><mxGeometry width="50" height="50" relative="1" as="geometry"><mxPoint x="350" as="sourcePoint"/><mxPoint x="400" y="-50" as="targetPoint"/></mxGeometry></mxCell><mxCell id="HhJSG8R3k3dLsdH0OaCU-31" value="" style="endArrow=none;html=1;rounded=0;exitX=0.5;exitY=0;exitDx=0;exitDy=0;" parent="1" source="HhJSG8R3k3dLsdH0OaCU-21" target="HhJSG8R3k3dLsdH0OaCU-25" edge="1"><mxGeometry width="50" height="50" relative="1" as="geometry"><mxPoint x="570" y="320" as="sourcePoint"/><mxPoint x="620" y="270" as="targetPoint"/></mxGeometry></mxCell><mxCell id="HhJSG8R3k3dLsdH0OaCU-32" value="" style="endArrow=none;html=1;rounded=0;exitX=1;exitY=0.5;exitDx=0;exitDy=0;entryX=0;entryY=0.5;entryDx=0;entryDy=0;" parent="1" source="HhJSG8R3k3dLsdH0OaCU-18" target="HhJSG8R3k3dLsdH0OaCU-22" edge="1"><mxGeometry width="50" height="50" relative="1" as="geometry"><mxPoint x="460" y="412" as="sourcePoint"/><mxPoint x="510" y="362" as="targetPoint"/></mxGeometry></mxCell><mxCell id="HhJSG8R3k3dLsdH0OaCU-33" value="1" style="text;html=1;align=center;verticalAlign=middle;resizable=0;points=[];autosize=1;strokeColor=none;fillColor=none;" parent="1" vertex="1"><mxGeometry x="440" y="370" width="20" height="20" as="geometry"/></mxCell><mxCell id="HhJSG8R3k3dLsdH0OaCU-34" value="*" style="text;html=1;align=center;verticalAlign=middle;resizable=0;points=[];autosize=1;strokeColor=none;fillColor=none;" parent="1" vertex="1"><mxGeometry x="530" y="370" width="20" height="20" as="geometry"/></mxCell><mxCell id="HhJSG8R3k3dLsdH0OaCU-35" value="*" style="text;html=1;align=center;verticalAlign=middle;resizable=0;points=[];autosize=1;strokeColor=none;fillColor=none;" parent="1" vertex="1"><mxGeometry x="630" y="310" width="20" height="20" as="geometry"/></mxCell><mxCell id="HhJSG8R3k3dLsdH0OaCU-36" value="1" style="text;html=1;align=center;verticalAlign=middle;resizable=0;points=[];autosize=1;strokeColor=none;fillColor=none;" parent="1" vertex="1"><mxGeometry x="630" y="250" width="20" height="20" as="geometry"/></mxCell><mxCell id="2XDhZodCKaeBFX6fJ5jR-1" value="" style="endArrow=none;html=1;rounded=0;entryX=0.479;entryY=1.02;entryDx=0;entryDy=0;entryPerimeter=0;exitX=0;exitY=0.5;exitDx=0;exitDy=0;" parent="1" source="HhJSG8R3k3dLsdH0OaCU-18" target="HhJSG8R3k3dLsdH0OaCU-8" edge="1"><mxGeometry width="50" height="50" relative="1" as="geometry"><mxPoint x="120" y="380" as="sourcePoint"/><mxPoint x="170" y="330" as="targetPoint"/><Array as="points"><mxPoint x="167" y="388"/></Array></mxGeometry></mxCell><mxCell id="2XDhZodCKaeBFX6fJ5jR-2" value="" style="endArrow=none;html=1;rounded=0;exitX=1;exitY=0.5;exitDx=0;exitDy=0;entryX=0.25;entryY=0;entryDx=0;entryDy=0;" parent="1" source="HhJSG8R3k3dLsdH0OaCU-8" target="HhJSG8R3k3dLsdH0OaCU-21" edge="1"><mxGeometry width="50" height="50" relative="1" as="geometry"><mxPoint x="320" y="300" as="sourcePoint"/><mxPoint x="370" y="250" as="targetPoint"/><Array as="points"><mxPoint x="490" y="280"/></Array></mxGeometry></mxCell></root></mxGraphModel></diagram></mxfile>